<svg xmlns="http://www.w3.org/2000/svg" xmlns:xlink="http://www.w3.org/1999/xlink" width="40" zoomAndPan="magnify" viewBox="0 0 30 30.000001" height="40" preserveAspectRatio="xMidYMid meet" version="1.0"><defs><clipPath id="b08e37890b"><path d="M 7.34375 6.859375 L 22.65625 6.859375 L 22.65625 22.171875 L 7.34375 22.171875 Z M 7.34375 6.859375 " clip-rule="nonzero"/></clipPath><clipPath id="1af2b9f9aa"><path d="M 15 6.859375 C 10.769531 6.859375 7.34375 10.289062 7.34375 14.515625 C 7.34375 18.746094 10.769531 22.171875 15 22.171875 C 19.230469 22.171875 22.65625 18.746094 22.65625 14.515625 C 22.65625 10.289062 19.230469 6.859375 15 6.859375 Z M 15 6.859375 " clip-rule="nonzero"/></clipPath><clipPath id="b745e97c37"><path d="M 3.386719 2.902344 L 26.613281 2.902344 L 26.613281 26.128906 L 3.386719 26.128906 Z M 3.386719 2.902344 " clip-rule="nonzero"/></clipPath></defs><g clip-path="url(#b08e37890b)"><g clip-path="url(#1af2b9f9aa)"><path fill="#ffffff" d="M 7.34375 6.859375 L 22.65625 6.859375 L 22.65625 22.171875 L 7.34375 22.171875 Z M 7.34375 6.859375 " fill-opacity="1" fill-rule="nonzero"/></g></g><g clip-path="url(#b745e97c37)"><path fill="#478cbf" d="M 17.3125 4.828125 C 18.335938 5.070312 19.316406 5.476562 20.214844 6.03125 L 22.101562 5.191406 L 24.324219 7.414062 L 23.484375 9.300781 C 24.039062 10.199219 24.445312 11.179688 24.6875 12.203125 L 26.613281 12.945312 L 26.613281 16.085938 L 24.6875 16.828125 C 24.445312 17.855469 24.039062 18.832031 23.484375 19.730469 L 24.324219 21.617188 L 22.101562 23.839844 L 20.214844 23 C 19.316406 23.554688 18.335938 23.960938 17.3125 24.203125 L 16.570312 26.128906 L 13.429688 26.128906 L 12.6875 24.203125 C 11.664062 23.960938 10.683594 23.554688 9.785156 23 L 7.898438 23.839844 L 5.675781 21.617188 L 6.515625 19.730469 C 5.960938 18.832031 5.554688 17.855469 5.3125 16.828125 L 3.386719 16.085938 L 3.386719 12.945312 L 5.3125 12.203125 C 5.554688 11.179688 5.960938 10.199219 6.515625 9.300781 L 5.675781 7.414062 L 7.898438 5.191406 L 9.785156 6.03125 C 10.683594 5.476562 11.664062 5.070312 12.6875 4.828125 L 13.429688 2.902344 L 16.570312 2.902344 Z M 13.75 18.90625 L 16.25 18.90625 C 16.464844 18.90625 16.636719 18.730469 16.636719 18.519531 C 16.636719 18.304688 16.464844 18.128906 16.25 18.128906 L 13.75 18.128906 C 13.535156 18.128906 13.363281 18.304688 13.363281 18.519531 C 13.363281 18.730469 13.535156 18.90625 13.75 18.90625 Z M 16.25 17.066406 L 16.25 13.152344 L 17.292969 13.152344 L 15 10.515625 L 12.707031 13.152344 L 13.75 13.152344 L 13.75 17.066406 Z M 15 8.554688 C 11.707031 8.554688 9.039062 11.222656 9.039062 14.515625 C 9.039062 17.808594 11.707031 20.476562 15 20.476562 C 18.292969 20.476562 20.960938 17.808594 20.960938 14.515625 C 20.960938 11.222656 18.292969 8.554688 15 8.554688 Z M 15 8.554688 " fill-opacity="1" fill-rule="evenodd"/></g></svg>